<svg xmlns="http://www.w3.org/2000/svg" width="80" height="61">
    <defs>
        <style>
            .public-4-3,.public-4-4{stroke:#7851e7;stroke-width:2px;fill:none;stroke-linecap:round}.public-4-3{stroke-linejoin:round}.public-4-4{stroke-miterlimit:10}
        </style>
    </defs>
    <g id="icon__public4" data-name="icon_ public4" transform="translate(1 1)">
        <path id="패스_2179" data-name="패스 2179" d="M228.408 41.942a.353.353 0 1 0-.353.343.349.349 0 0 0 .353-.343zm-5.274 0a.353.353 0 1 0-.353.343.347.347 0 0 0 .354-.343zm-13.816-2.764a3.894 3.894 0 0 1 3.943-3.841H250.6v12.7h-41.281zm8.189 2.422a.343.343 0 1 0 .353.343.349.349 0 0 0-.352-.343z" transform="translate(-209.319 -25.778)" style="stroke:#7851e7;stroke-width:2px;fill:#e8dcfd"/>
        <path id="패스_2180" data-name="패스 2180" d="M267.147 44.042v1.165a5.159 5.159 0 0 0 5.241 5.072h3.287l-1.818 7.972 10.856-7.972h13.909a5.159 5.159 0 0 0 5.241-5.072V26.855a5.158 5.158 0 0 0-5.241-5.072h-26.234a5.159 5.159 0 0 0-5.241 5.072v17.187z" transform="translate(-225.863 -21.783)" style="stroke-linejoin:round;fill:none;stroke:#7851e7;stroke-width:2px"/>
        <path id="패스_2181" data-name="패스 2181" class="public-4-3" d="M284.18 34.951a.967.967 0 1 1-.966-.934.952.952 0 0 1 .966.934z" transform="translate(-230.183 -25.389)"/>
        <path id="패스_2182" data-name="패스 2182" class="public-4-3" d="M302.454 35a.844.844 0 1 1-.844-.815.831.831 0 0 1 .844.815z" transform="translate(-235.481 -25.439)"/>
        <path id="패스_2183" data-name="패스 2183" class="public-4-3" d="M280.472 47.6a13.455 13.455 0 0 0 17.568 0" transform="translate(-229.675 -29.394)"/>
        <path id="패스_2184" data-name="패스 2184" class="public-4-4" d="M277.033 54.275v26.662a3.892 3.892 0 0 1-3.943 3.841h-59.828a3.892 3.892 0 0 1-3.943-3.841v-41.76a3.894 3.894 0 0 1 3.943-3.841H250.6" transform="translate(-209.319 -25.778)"/>
        <path id="선_12" data-name="선 12" class="public-4-4" transform="translate(0 22.259)" d="M41.284 0H0"/>
        <ellipse id="타원_128" data-name="타원 128" class="public-4-4" cx=".353" cy=".343" rx=".353" ry=".343" transform="translate(7.836 15.821)"/>
        <ellipse id="타원_129" data-name="타원 129" class="public-4-4" cx=".353" cy=".343" rx=".353" ry=".343" transform="translate(13.11 15.821)"/>
        <ellipse id="타원_130" data-name="타원 130" class="public-4-4" cx=".353" cy=".343" rx=".353" ry=".343" transform="translate(18.384 15.821)"/>
    </g>
</svg>
