<svg xmlns="http://www.w3.org/2000/svg" width="66" height="60.999">
    <defs>
        <style>
            .corp-1-1{fill:#a1daf9}.corp-1-2,.corp-1-4{fill:none;stroke:#7851e7;stroke-linejoin:round;stroke-width:2px}.corp-1-4{fill:#e8dcfd}
        </style>
    </defs>
    <g id="icon_Corp1" transform="translate(1 1)">
        <path id="패스_2268" data-name="패스 2268" class="corp-1-1" d="M262.954 463.434h5.771v5.282a2.977 2.977 0 0 1-2.8 2.722h-58.4a2.978 2.978 0 0 1-2.8-2.722v-5.282h58.229z" transform="translate(-204.725 -412.438)"/>
        <path id="패스_2269" data-name="패스 2269" class="corp-1-1" d="M269.84 431.884v-9.158h.752a3.354 3.354 0 0 1 2.6 1.34 4.593 4.593 0 0 1 .369.537 5.5 5.5 0 0 1 0 5.4 3.508 3.508 0 0 1-2.973 1.878z" transform="translate(-222.136 -400.346)"/>
        <path id="패스_2270" data-name="패스 2270" class="corp-1-1" d="M260.692 420.246a3.26 3.26 0 0 1 3.325-3.189h.053a3.26 3.26 0 0 1 3.324 3.189v10.749a3.26 3.26 0 0 1-3.324 3.19h-.053a3.26 3.26 0 0 1-3.325-3.19z" transform="translate(-219.69 -398.661)"/>
        <path id="패스_2271" data-name="패스 2271" class="corp-1-1" d="M252.842 451.2a1.952 1.952 0 0 1-1.991 1.91h-7.129a1.952 1.952 0 0 1-1.991-1.91v-.256a1.952 1.952 0 0 1 1.991-1.911h7.129a1.952 1.952 0 0 1 1.991 1.911v.256z" transform="translate(-214.62 -408.159)"/>
        <path id="패스_2272" data-name="패스 2272" class="corp-1-1" d="M234.333 431.016a3.236 3.236 0 0 1-3.3 3.169h-.053a3.237 3.237 0 0 1-3.3-3.169v-10.791a3.237 3.237 0 0 1 3.3-3.168h.053a3.236 3.236 0 0 1 3.3 3.168z" transform="translate(-210.862 -398.661)"/>
        <path id="패스_2273" data-name="패스 2273" class="corp-1-1" d="M225.87 422.376v9.651h-1.036c-2.164 0-3.917-2.162-3.917-4.826a5.418 5.418 0 0 1 1.147-3.412 4.42 4.42 0 0 1 .18-.206 3.512 3.512 0 0 1 2.591-1.207z" transform="translate(-209.054 -400.241)"/>
        <path id="선_40" data-name="선 40" class="corp-1-2" transform="translate(18.634 10.492)" d="M27.353 0H0"/>
        <path id="패스_2274" data-name="패스 2274" class="corp-1-2" d="M212.6 446.382v-37.609a2.88 2.88 0 0 1 2.8-2.959h3.238" transform="translate(-206.831 -395.322)"/>
        <path id="패스_2275" data-name="패스 2275" class="corp-1-2" d="M276.814 405.814h2.615a2.881 2.881 0 0 1 2.8 2.959v37.609" transform="translate(-224 -395.322)"/>
        <path id="패스_2276" data-name="패스 2276" d="M262.954 463.434h5.771v5.282a2.977 2.977 0 0 1-2.8 2.722h-58.4a2.978 2.978 0 0 1-2.8-2.722v-5.282h58.229z" transform="translate(-204.725 -412.438)" style="stroke-linecap:round;fill:#e8dcfd;stroke:#7851e7;stroke-linejoin:round;stroke-width:2px"/>
        <path id="선_41" data-name="선 41" class="corp-1-2" transform="translate(53.451 54.998)" d="M3.051 0H0"/>
        <path id="선_42" data-name="선 42" class="corp-1-2" transform="translate(48.378 54.998)" d="M3.051 0H0"/>
        <path id="패스_2277" data-name="패스 2277" class="corp-1-4" d="M227.678 420.8v-.571a3.237 3.237 0 0 1 3.3-3.168h.053a3.236 3.236 0 0 1 3.3 3.168v10.791a3.236 3.236 0 0 1-3.3 3.169h-.053a3.237 3.237 0 0 1-3.3-3.169V420.8z" transform="translate(-210.862 -398.662)"/>
        <path id="패스_2278" data-name="패스 2278" class="corp-1-4" d="M225.87 432.027h-1.036c-2.164 0-3.917-2.162-3.917-4.826a5.418 5.418 0 0 1 1.147-3.412 4.42 4.42 0 0 1 .18-.206 3.512 3.512 0 0 1 2.591-1.207h1.036" transform="translate(-209.054 -400.242)"/>
        <path id="패스_2279" data-name="패스 2279" class="corp-1-4" d="M267.394 421.042v-.8a3.26 3.26 0 0 0-3.324-3.189h-.053a3.26 3.26 0 0 0-3.325 3.189v10.749a3.26 3.26 0 0 0 3.325 3.19h.053a3.26 3.26 0 0 0 3.324-3.19v-9.953z" transform="translate(-219.69 -398.662)"/>
        <path id="패스_2280" data-name="패스 2280" class="corp-1-4" d="M269.537 431.884h.974a3.508 3.508 0 0 0 2.973-1.878 5.5 5.5 0 0 0 0-5.4 4.6 4.6 0 0 0-.368-.537 3.354 3.354 0 0 0-2.6-1.34h-.974" transform="translate(-222.055 -400.346)"/>
        <path id="패스_2281" data-name="패스 2281" class="corp-1-2" d="M260.967 415.145v-6.2a17.208 17.208 0 0 0-1.753-7.563 18.074 18.074 0 0 0-3.847-5.2 19.64 19.64 0 0 0-13.52-5.288 19.214 19.214 0 0 0-17.367 10.493 17.291 17.291 0 0 0-1.421 4.2 17.019 17.019 0 0 0-.333 3.366v5.286" transform="translate(-209.538 -390.887)"/>
        <path id="패스_2282" data-name="패스 2282" class="corp-1-4" d="M250.851 453.107h-7.129a1.952 1.952 0 0 1-1.991-1.91v-.256a1.952 1.952 0 0 1 1.991-1.911h7.129a1.952 1.952 0 0 1 1.991 1.911v.256a1.952 1.952 0 0 1-1.991 1.91z" transform="translate(-214.62 -408.159)"/>
        <path id="패스_2283" data-name="패스 2283" class="corp-1-2" d="M256.9 446.332h6.54a6.489 6.489 0 0 0 6.667-6.3v-6.954" transform="translate(-218.675 -403.422)"/>
    </g>
</svg>
