<svg id="icon_shop3" xmlns="http://www.w3.org/2000/svg" width="61" height="58.999">
    <defs>
        <style>
            .shop-3-1,.shop-3-5{fill:#e8dcfd}.shop-3-3,.shop-3-4,.shop-3-6{fill:none}.shop-3-3,.shop-3-4,.shop-3-5,.shop-3-6{stroke:#7851e7;stroke-width:2px}.shop-3-3,.shop-3-4,.shop-3-5{stroke-linecap:round}.shop-3-3{stroke-miterlimit:10}.shop-3-4,.shop-3-5,.shop-3-6{stroke-linejoin:round}
        </style>
    </defs>
    <path id="패스_2225" data-name="패스 2225" class="shop-3-1" d="M314.294 291.087a2.692 2.692 0 0 1 .707 1.937l-.506 6.8h-11.367l-.506-6.8a2.693 2.693 0 0 1 .709-1.937 2.492 2.492 0 0 1 1.831-.813h1.657l1.994 3.876 1.993-3.876h1.657a2.5 2.5 0 0 1 1.831.813z" transform="translate(-278.313 -270.931)"/>
    <path id="패스_2226" data-name="패스 2226" class="shop-3-1" d="m284.46 319.715-.506-6.815a2.707 2.707 0 0 1 .709-1.942 2.489 2.489 0 0 1 1.831-.813h1.657l1.994 3.882 1.993-3.882h1.662a2.5 2.5 0 0 1 1.831.813 2.705 2.705 0 0 1 .707 1.942l-.506 6.815" transform="translate(-272.177 -277.726)"/>
    <path id="선_29" data-name="선 29" transform="translate(12.282 41.029)" style="fill:#b1e1fa" d="M11.368 0H0"/>
    <path id="패스_2227" data-name="패스 2227" class="shop-3-3" d="M313.313 279.926a2.881 2.881 0 1 1-2.879-2.806 2.842 2.842 0 0 1 2.879 2.806z" transform="translate(-279.934 -266.432)"/>
    <path id="패스_2228" data-name="패스 2228" class="shop-3-3" d="M294.645 299.8a2.881 2.881 0 1 1-2.879-2.805 2.843 2.843 0 0 1 2.879 2.805z" transform="translate(-273.799 -273.227)"/>
    <path id="패스_2229" data-name="패스 2229" class="shop-3-4" d="m303.127 298.885-.506-6.131a2.294 2.294 0 0 1 .708-1.746 2.624 2.624 0 0 1 1.832-.733h1.657l1.993 3.493 1.993-3.493h1.657a2.631 2.631 0 0 1 1.832.733 2.292 2.292 0 0 1 .706 1.746l-.506 6.131" transform="translate(-278.313 -270.931)"/>
    <path id="패스_2230" data-name="패스 2230" class="shop-3-5" d="m284.459 318.756-.506-6.131a2.3 2.3 0 0 1 .708-1.748 2.622 2.622 0 0 1 1.832-.731h1.657l1.993 3.493 1.993-3.493h1.657a2.629 2.629 0 0 1 1.832.731 2.3 2.3 0 0 1 .706 1.748l-.506 6.131" transform="translate(-272.177 -277.727)"/>
    <path id="패스_2231" data-name="패스 2231" class="shop-3-1" d="m333.166 319.715.506-6.815a2.707 2.707 0 0 0-.709-1.942 2.489 2.489 0 0 0-1.831-.813h-1.657l-1.994 3.882-1.993-3.882h-1.657a2.5 2.5 0 0 0-1.831.813 2.706 2.706 0 0 0-.707 1.942l.506 6.815" transform="translate(-284.449 -277.726)"/>
    <path id="패스_2232" data-name="패스 2232" class="shop-3-3" d="M326.224 299.8a2.881 2.881 0 1 0 2.879-2.805 2.843 2.843 0 0 0-2.879 2.805z" transform="translate(-286.07 -273.227)"/>
    <path id="패스_2233" data-name="패스 2233" class="shop-3-5" d="m333.167 318.756.506-6.131a2.3 2.3 0 0 0-.708-1.748 2.622 2.622 0 0 0-1.832-.731h-1.657l-1.993 3.493-1.993-3.493h-1.657a2.629 2.629 0 0 0-1.832.731 2.3 2.3 0 0 0-.706 1.748l.506 6.131" transform="translate(-284.449 -277.727)"/>
    <path id="패스_2234" data-name="패스 2234" class="shop-3-4" d="M316.874 266.2c12.259 1.475 21.978 10.874 23.5 22.732" transform="translate(-282.998 -262.697)"/>
    <path id="패스_2235" data-name="패스 2235" class="shop-3-4" d="M271.8 310.676c1.527 11.858 11.244 21.256 23.5 22.732" transform="translate(-268.185 -277.907)"/>
    <path id="패스_2236" data-name="패스 2236" class="shop-3-4" d="M271.8 288.93c1.527-11.858 11.244-21.257 23.5-22.732" transform="translate(-268.185 -262.697)"/>
    <path id="패스_2237" data-name="패스 2237" class="shop-3-4" d="M316.874 333.408c12.259-1.476 21.978-10.874 23.5-22.732" transform="translate(-282.998 -277.907)"/>
    <path id="선_30" data-name="선 30" class="shop-3-6" transform="translate(30.5)" d="M0 0v6.597"/>
    <path id="선_31" data-name="선 31" class="shop-3-6" transform="translate(0 29.5)" d="M0 0h6.818"/>
    <path id="패스_2238" data-name="패스 2238" class="shop-3-6" d="M311.842 347.112v-6.595" transform="translate(-281.344 -288.112)"/>
    <path id="선_32" data-name="선 32" class="shop-3-6" transform="translate(54.18 29.5)" d="M6.82 0H0"/>
</svg>
