<svg xmlns="http://www.w3.org/2000/svg" width="75.008" height="61.134">
    <defs>
        <style>
            .public-3-1{fill:#e8dcfd}.public-3-2,.public-3-3,.public-3-4{fill:none;stroke:#7851e7;stroke-width:2px}.public-3-2{stroke-linecap:round}.public-3-2,.public-3-3{stroke-miterlimit:10}.public-3-4{stroke-linejoin:round}
        </style>
    </defs>
    <g id="icon__public3" data-name="icon_ public3" transform="translate(1 1)">
        <path id="사각형_7142" data-name="사각형 7142" class="public-3-1" d="M1.118 0h6.636A1.116 1.116 0 0 1 8.87 1.116v6.325a1.118 1.118 0 0 1-1.118 1.118H1.116A1.116 1.116 0 0 1 0 7.443V1.118A1.118 1.118 0 0 1 1.118 0z" transform="translate(12.126 16.695)"/>
        <path id="사각형_7143" data-name="사각형 7143" class="public-3-1" d="M1.118 0h6.636A1.116 1.116 0 0 1 8.87 1.116v6.325a1.118 1.118 0 0 1-1.118 1.118H1.116A1.116 1.116 0 0 1 0 7.443V1.118A1.118 1.118 0 0 1 1.118 0z" transform="translate(12.126 30.881)"/>
        <path id="사각형_7144" data-name="사각형 7144" class="public-3-2" d="M1.118 0h6.636A1.116 1.116 0 0 1 8.87 1.116v6.325a1.118 1.118 0 0 1-1.118 1.118H1.116A1.116 1.116 0 0 1 0 7.443V1.118A1.118 1.118 0 0 1 1.118 0z" transform="translate(12.126 16.695)"/>
        <path id="선_57" data-name="선 57" class="public-3-3" transform="translate(27.365 23.737)" d="M0 0h24.636"/>
        <path id="선_58" data-name="선 58" class="public-3-3" transform="translate(27.365 18.213)" d="M0 0h24.636"/>
        <path id="사각형_7145" data-name="사각형 7145" class="public-3-2" d="M1.118 0h6.636A1.116 1.116 0 0 1 8.87 1.116v6.325a1.118 1.118 0 0 1-1.118 1.118H1.116A1.116 1.116 0 0 1 0 7.443V1.118A1.118 1.118 0 0 1 1.118 0z" transform="translate(12.126 30.881)"/>
        <path id="선_59" data-name="선 59" class="public-3-3" transform="translate(27.365 37.922)" d="M0 0h24.636"/>
        <path id="선_60" data-name="선 60" class="public-3-3" transform="translate(27.365 32.399)" d="M0 0h24.636"/>
        <path id="패스_2332" data-name="패스 2332" class="public-3-1" d="M140.738 223.409a17.673 17.673 0 0 0 1.63-1.826l.042.04 5.4 5.093c1.763 1.763-2.078 5.34-3.841 3.578l-5.06-5.357a17.343 17.343 0 0 0 1.829-1.528z" transform="translate(-75.26 -171.769)"/>
        <path id="패스_2333" data-name="패스 2333" class="public-3-1" d="M127.216 205.635a13.018 13.018 0 0 1-3.489 2.916 13.425 13.425 0 0 1-6.735 1.79 12.7 12.7 0 1 1 13.154-12.693 12.363 12.363 0 0 1-2.93 7.987z" transform="translate(-63.455 -158.972)"/>
        <path id="패스_2334" data-name="패스 2334" class="public-3-1" d="M55.475 151.434a.317.317 0 1 0-.328-.316.322.322 0 0 0 .328.316zm4.9 0a.317.317 0 1 0-.328-.316.322.322 0 0 0 .329.316zm-9.8-.633a.317.317 0 1 0 .328.317.322.322 0 0 0-.326-.318zm55.31-2.234v8.175h-62.92v-8.175a3.605 3.605 0 0 1 3.666-3.544h55.592a3.6 3.6 0 0 1 3.664 3.544z" transform="translate(-42.965 -145.023)"/>
        <path id="패스_2335" data-name="패스 2335" class="public-3-3" d="M105.887 169.924v-21.357a3.6 3.6 0 0 0-3.664-3.544H46.631a3.605 3.605 0 0 0-3.666 3.544V187.1a3.606 3.606 0 0 0 3.666 3.543H81" transform="translate(-42.965 -145.023)"/>
        <path id="선_55" data-name="선 55" class="public-3-2" transform="translate(0 11.72)" d="M0 0h62.922"/>
        <ellipse id="타원_144" data-name="타원 144" class="public-3-2" cx=".328" cy=".316" rx=".328" ry=".316" transform="translate(7.284 5.779)"/>
        <ellipse id="타원_145" data-name="타원 145" class="public-3-2" cx=".328" cy=".316" rx=".328" ry=".316" transform="translate(12.182 5.779)"/>
        <ellipse id="타원_146" data-name="타원 146" class="public-3-2" cx=".328" cy=".316" rx=".328" ry=".316" transform="translate(17.083 5.779)"/>
        <path id="패스_2336" data-name="패스 2336" class="public-3-4" d="M138.907 224.937a17.343 17.343 0 0 0 1.831-1.528 17.673 17.673 0 0 0 1.63-1.826" transform="translate(-75.26 -171.769)"/>
        <path id="패스_2337" data-name="패스 2337" class="public-3-4" d="m137.309 216.739 3.347 3.152.042.04 5.4 5.093c1.763 1.763-2.078 5.34-3.841 3.578l-5.06-5.357-.026-.027-3.347-3.561" transform="translate(-73.549 -170.077)"/>
        <path id="패스_2338" data-name="패스 2338" class="public-3-4" d="M123.726 208.55a13.425 13.425 0 0 1-6.735 1.79 12.7 12.7 0 1 1 13.154-12.693 12.363 12.363 0 0 1-2.93 7.988 13.018 13.018 0 0 1-3.489 2.915z" transform="translate(-63.455 -158.972)"/>
    </g>
</svg>
