<svg xmlns="http://www.w3.org/2000/svg" id="icon_analytics_-1" width="24" height="24" viewBox="0 0 24 24">
    <path id="패스_674" d="M24.333 3H5.667A2.675 2.675 0 0 0 3 5.667v18.666A2.675 2.675 0 0 0 5.667 27h18.666A2.675 2.675 0 0 0 27 24.333V5.667A2.675 2.675 0 0 0 24.333 3zm0 21.333H5.667V5.667h18.666z" class="cls-1" transform="translate(-3 -3)"/>
    <path id="사각형_1002" d="M0 0H2.667V6.667H0z" class="cls-1" transform="translate(5.333 12)"/>
    <path id="사각형_1003" d="M0 0H2.667V13.333H0z" class="cls-1" transform="translate(16 5.333)"/>
    <path id="사각형_1004" d="M0 0H2.667V4H0z" class="cls-1" transform="translate(10.667 14.667)"/>
    <path id="사각형_1005" d="M0 0H2.667V2.667H0z" class="cls-1" transform="translate(10.667 9.333)"/>
</svg>
