<svg xmlns="http://www.w3.org/2000/svg" id="icon_page-analy" width="24" height="24" viewBox="0 0 24 24">
    <path id="사각형_1000" fill="none" d="M0 0H24V24H0z"/>
    <g id="그룹_1064" transform="translate(-2 -2)">
        <path id="패스_707" d="M11.286 21.8H6.211V4.2h7.737v5.5h5.526v2.087a6.951 6.951 0 0 1 2.211 1.179V8.6L15.053 2H6.211a2.2 2.2 0 0 0-2.2 2.2L4 21.8A2.2 2.2 0 0 0 6.2 24h7.062a6.977 6.977 0 0 1-1.976-2.2z" class="cls-2"/>
        <g id="그룹_1063" transform="translate(12.378 13.441)">
            <path id="패스_708" d="M20.754 19.98a4.887 4.887 0 0 0 .774-2.628 5.013 5.013 0 1 0-2.343 4.179l3.448 3.431L24.2 23.4zm-4.2.121a2.749 2.749 0 1 1 2.763-2.749 2.757 2.757 0 0 1-2.763 2.748z" class="cls-2" transform="translate(-11.58 -12.403)"/>
        </g>
    </g>
</svg>
