<svg xmlns="http://www.w3.org/2000/svg" width="54.011" height="42.006">
    <defs>
        <style>
            .faces-1,.faces-2{fill:#a1daf9;stroke:#707070;stroke-width:2px}.faces-2{fill:#fff;stroke:#bdbdbd;stroke-linejoin:round}
        </style>
    </defs>
    <g id="icon_faces" transform="translate(-936.989 -2026.994)">
        <path id="패스_2087" data-name="패스 2087" class="faces-1" d="M403.864 30.385a16.713 16.713 0 0 1 5.576.489c-8.661 1.624-11.26 6.368-11.487 14.1-.1 3.279-2.811 5.447-3.244 7.266.112 1.228 3.633 1.476 3.071 2.432-1.045 1.777.866 2.077.292 2.945-1.207 1.824 1.381.866.923 2.525s-.511 2.333.094 3.276c.856 1.336 5.528 1.234 5.528 1.234a15.594 15.594 0 0 0 1.73 4.383 19.481 19.481 0 0 1-7.595 1.3 2.39 2.39 0 0 1-1.839-1.3 15.565 15.565 0 0 1-1.732-4.383s-4.672.1-5.527-1.232c-.605-.945-.554-1.617-.094-3.276s-2.131-.7-.924-2.525c.575-.87-1.336-1.17-.293-2.947.562-.956-2.959-1.2-3.07-2.432.432-1.819 3.146-3.985 3.244-7.266.228-7.729 2.826-12.475 11.486-14.1a35.391 35.391 0 0 1 3.861-.489z" transform="translate(562.16 1997.665)"/>
        <path id="패스_2088" data-name="패스 2088" class="faces-1" d="M386.871 30.385a16.713 16.713 0 0 1 5.576.489c-8.66 1.624-11.258 6.37-11.486 14.1-.1 3.281-2.812 5.447-3.244 7.266.112 1.228 3.633 1.476 3.07 2.432-1.043 1.777.868 2.077.293 2.947-1.207 1.824 1.383.864.924 2.525s-.511 2.331.094 3.276c.855 1.335 5.527 1.232 5.527 1.232a15.565 15.565 0 0 0 1.732 4.383 19.49 19.49 0 0 1-7.6 1.3c-2.294.023-3.57-5.684-3.57-5.684s-4.671.1-5.527-1.232c-.605-.945-.553-1.617-.094-3.276s-2.129-.7-.922-2.525c.574-.87-1.338-1.17-.293-2.947.563-.956-2.959-1.2-3.07-2.432.432-1.819 3.146-3.985 3.242-7.266.261-8.773 3.577-13.704 15.348-14.588z" transform="translate(569.717 1997.665)"/>
        <path id="패스_2089" data-name="패스 2089" class="faces-2" d="M392.446 30.874a16.713 16.713 0 0 0-5.576-.489c-11.772.884-15.087 5.812-15.346 14.588-.1 3.281-2.81 5.447-3.242 7.266.112 1.228 3.633 1.476 3.07 2.432-1.045 1.777.866 2.077.293 2.947-1.207 1.824 1.381.864.922 2.525s-.511 2.331.094 3.276c.857 1.335 5.527 1.232 5.527 1.232s1.276 5.707 3.57 5.684a19.49 19.49 0 0 0 7.6-1.3" transform="translate(569.717 1997.666)"/>
        <path id="패스_2090" data-name="패스 2090" class="faces-2" d="M409.439 30.874a16.713 16.713 0 0 0-5.576-.489 35.391 35.391 0 0 0-3.86.489c-8.66 1.624-11.258 6.37-11.486 14.1-.1 3.281-2.812 5.447-3.244 7.266.112 1.228 3.633 1.476 3.07 2.432-1.043 1.777.868 2.077.293 2.947-1.207 1.824 1.383.864.924 2.525s-.511 2.331.094 3.276c.855 1.335 5.527 1.232 5.527 1.232a15.565 15.565 0 0 0 1.732 4.383 2.39 2.39 0 0 0 1.839 1.3 19.481 19.481 0 0 0 7.595-1.3" transform="translate(562.16 1997.666)"/>
        <path id="패스_2091" data-name="패스 2091" d="M417 30.874a34.936 34.936 0 0 1 3.858-.489c5.727-.429 14.468 1.638 14.543 14.393.047 8.051-4.625 9.579-5.462 12.267-.8 2.566.58 3.385-.041 4.767-2.832 6.3-6.651 8.444-14.148 8.523a2.394 2.394 0 0 1-1.841-1.3 15.594 15.594 0 0 1-1.73-4.383s-4.672.1-5.528-1.234c-.605-.943-.553-1.616-.094-3.276s-2.129-.7-.923-2.525c.574-.868-1.337-1.168-.292-2.945.562-.956-2.959-1.2-3.071-2.432.433-1.819 3.146-3.987 3.244-7.266.222-7.731 2.821-12.474 11.485-14.1z" transform="translate(554.602 1997.666)" style="fill:#e8dcfd;stroke:#7851e7;stroke-linejoin:round;stroke-width:2px"/>
    </g>
</svg>
