<svg xmlns="http://www.w3.org/2000/svg" id="icon_user-analy" width="24" height="24" viewBox="0 0 24 24">
    <path id="사각형_1010" fill="none" d="M0 0H24V24H0z"/>
    <g id="그룹_1070" transform="translate(-2 -3)">
        <g id="그룹_1069" transform="translate(2 4)">
            <path id="패스_715" d="M10.8 13.778a4.844 4.844 0 0 0 4.8-4.889 4.8 4.8 0 1 0-9.6 0 4.844 4.844 0 0 0 4.8 4.889zm0-7.333a2.445 2.445 0 1 1-2.4 2.444 2.43 2.43 0 0 1 2.4-2.445z" class="cls-2" transform="translate(-1.2 -4)"/>
            <path id="패스_716" d="M4.4 18.888c.264-.88 3.972-2.444 7.2-2.444a7.387 7.387 0 0 1 .42-2.432C8.744 13.889 2 15.551 2 18.888v2.444h11.448a7.209 7.209 0 0 1-1.428-2.444z" class="cls-2" transform="translate(-2 -1.777)"/>
            <path id="패스_717" d="M20.916 19.358a4.788 4.788 0 0 0 .684-2.469 4.8 4.8 0 1 0-4.8 4.889 4.686 4.686 0 0 0 2.424-.7l3.084 3.141L24 22.5c-1.8-1.834-.948-.979-3.084-3.142zm-4.116-.025a2.445 2.445 0 1 1 2.4-2.444 2.43 2.43 0 0 1-2.4 2.444z" class="cls-2" transform="translate(0 -2.222)"/>
        </g>
    </g>
</svg>
