<svg xmlns="http://www.w3.org/2000/svg" width="16" height="16" viewBox="0 0 16 16">
    <!-- <defs>
        <style>
            .cls-2{fill:#fff}
        </style>
    </defs> -->
    <g id="icon_aivory_on" transform="translate(-36 -291)">
        <path id="사각형_1295" fill="none" d="M0 0H16V16H0z" transform="translate(36 291)"/>
        <g id="그룹_1462" transform="translate(36 295)">
            <path id="패스_742" d="M463.53 244.469a.9.9 0 0 1-.419-.1.957.957 0 0 1-.471-.561.994.994 0 0 1 .051-.741l2.607-5.392a.931.931 0 0 1 .84-.537.9.9 0 0 1 .419.1.957.957 0 0 1 .471.561.994.994 0 0 1-.051.741l-2.607 5.392a.932.932 0 0 1-.84.537" class="cls-2" transform="translate(-451.076 -237.136)"/>
            <path id="패스_743" d="M434.88 244.469a.932.932 0 0 1-.84-.537l-2.607-5.392a.994.994 0 0 1-.051-.741.955.955 0 0 1 .471-.561.9.9 0 0 1 .419-.1.931.931 0 0 1 .84.537l2.607 5.392a.994.994 0 0 1 .051.741.955.955 0 0 1-.471.561.9.9 0 0 1-.419.1" class="cls-2" transform="translate(-422.426 -237.136)"/>
            <path id="패스_744" d="M325.457 244.469a.9.9 0 0 1-.419-.1.957.957 0 0 1-.471-.561.994.994 0 0 1 .051-.741l2.607-5.392a.931.931 0 0 1 .84-.537.9.9 0 0 1 .419.1.957.957 0 0 1 .471.561.994.994 0 0 1-.051.741l-2.607 5.392a.931.931 0 0 1-.84.537" class="cls-2" transform="translate(-324.518 -237.136)"/>
            <path id="패스_745" d="M359.322 244.469a.932.932 0 0 1-.84-.537l-2.607-5.392a.994.994 0 0 1-.051-.741.955.955 0 0 1 .471-.561.9.9 0 0 1 .419-.1.931.931 0 0 1 .84.537l2.607 5.392a.994.994 0 0 1 .051.741.955.955 0 0 1-.471.561.9.9 0 0 1-.419.1" class="cls-2" transform="translate(-353.169 -237.136)"/>
            <path id="패스_746" d="M397.094 244.469a.931.931 0 0 1-.84-.537l-2.607-5.392a1 1 0 0 1-.051-.741.955.955 0 0 1 .471-.561.9.9 0 0 1 .419-.1.931.931 0 0 1 .84.537l2.607 5.392a1 1 0 0 1 .051.741.956.956 0 0 1-.471.561.9.9 0 0 1-.419.1" class="cls-2" transform="translate(-387.79 -237.136)"/>
        </g>
    </g>
</svg>
