<svg xmlns="http://www.w3.org/2000/svg" width="24" height="24" viewBox="0 0 24 24">
    <path fill="#9e9e9e" d="M23.44 15.176A9.1 9.1 0 0 0 23.526 14a9.1 9.1 0 0 0-.086-1.176l2.6-1.98a.594.594 0 0 0 .148-.768l-2.465-4.152a.62.62 0 0 0-.543-.3.591.591 0 0 0-.21.036l-3.07 1.2a9.077 9.077 0 0 0-2.085-1.176l-.47-3.184a.6.6 0 0 0-.6-.5h-4.939a.6.6 0 0 0-.6.5l-.469 3.18a9.545 9.545 0 0 0-2.089 1.18l-3.072-1.2a.716.716 0 0 0-.222-.036.614.614 0 0 0-.53.3l-2.468 4.152a.581.581 0 0 0 .148.768l2.6 1.98A9.261 9.261 0 0 0 5.021 14a9.262 9.262 0 0 0 .086 1.176l-2.6 1.98a.594.594 0 0 0-.148.768l2.467 4.152a.62.62 0 0 0 .543.3.591.591 0 0 0 .21-.036l3.072-1.2a9.077 9.077 0 0 0 2.085 1.176L11.2 25.5a.6.6 0 0 0 .6.5h4.935a.6.6 0 0 0 .6-.5l.469-3.18a9.546 9.546 0 0 0 2.096-1.18l3.072 1.2a.716.716 0 0 0 .222.036.614.614 0 0 0 .53-.3l2.467-4.152a.594.594 0 0 0-.148-.768zM21 13.124a6.239 6.239 0 0 1 .062.876 8.692 8.692 0 0 1-.062.876l-.173 1.356 1.1.84 1.332 1.008-.864 1.452-1.567-.612-1.283-.5-1.11.816a7.276 7.276 0 0 1-1.542.876l-1.308.516-.2 1.356-.247 1.62H13.41l-.234-1.62-.2-1.356-1.308-.516a7.051 7.051 0 0 1-1.517-.852l-1.123-.84-1.308.516-1.567.612-.864-1.452 1.332-1.008 1.1-.84-.171-1.36c-.037-.372-.062-.648-.062-.888s.025-.516.062-.876l.173-1.356-1.1-.84L5.292 9.92l.864-1.452 1.567.612 1.283.5 1.11-.816a7.276 7.276 0 0 1 1.542-.876l1.308-.516.2-1.356.244-1.616h1.715l.234 1.62.2 1.356 1.308.516a7.051 7.051 0 0 1 1.517.852l1.123.84 1.308-.516 1.567-.612.864 1.452-1.32 1.02-1.1.84.174 1.356zM14.273 9.2a4.8 4.8 0 1 0 4.935 4.8 4.867 4.867 0 0 0-4.935-4.8zm0 7.2a2.4 2.4 0 1 1 2.468-2.4 2.442 2.442 0 0 1-2.468 2.4z" transform="translate(-2.271 -2)"/>
</svg>
