<svg xmlns="http://www.w3.org/2000/svg" width="24" height="11" viewBox="0 0 24 11">
    <g id="icon_aivory_logo" transform="translate(-324.518 -237.136)">
        <path id="패스_742" d="M464 248.136a1.354 1.354 0 0 1-.628-.154 1.435 1.435 0 0 1-.706-.842 1.491 1.491 0 0 1 .076-1.111l3.911-8.088a1.4 1.4 0 0 1 1.26-.805 1.356 1.356 0 0 1 .628.154 1.435 1.435 0 0 1 .706.842 1.491 1.491 0 0 1-.077 1.111l-3.911 8.088a1.4 1.4 0 0 1-1.26.805" class="cls-1" transform="translate(-120.801)"/>
        <path id="패스_743" d="M436.654 248.136a1.4 1.4 0 0 1-1.26-.805l-3.911-8.088a1.491 1.491 0 0 1-.077-1.111 1.433 1.433 0 0 1 .706-.842 1.351 1.351 0 0 1 .628-.154 1.4 1.4 0 0 1 1.26.805l3.911 8.088a1.491 1.491 0 0 1 .076 1.111 1.433 1.433 0 0 1-.706.842 1.349 1.349 0 0 1-.628.154" class="cls-1" transform="translate(-93.453)"/>
        <path id="패스_744" d="M325.926 248.136a1.355 1.355 0 0 1-.629-.154 1.435 1.435 0 0 1-.706-.842 1.491 1.491 0 0 1 .076-1.111l3.911-8.088a1.4 1.4 0 0 1 1.26-.805 1.356 1.356 0 0 1 .628.154 1.435 1.435 0 0 1 .706.842 1.491 1.491 0 0 1-.077 1.111l-3.911 8.088a1.4 1.4 0 0 1-1.26.805" class="cls-1"/>
        <path id="패스_745" d="M361.1 248.136a1.4 1.4 0 0 1-1.26-.805l-3.911-8.088a1.491 1.491 0 0 1-.077-1.111 1.433 1.433 0 0 1 .706-.842 1.351 1.351 0 0 1 .628-.154 1.4 1.4 0 0 1 1.26.805l3.911 8.088a1.491 1.491 0 0 1 .076 1.111 1.433 1.433 0 0 1-.706.842 1.349 1.349 0 0 1-.628.154" class="cls-1" transform="translate(-27.347)"/>
        <path id="패스_746" d="M398.867 248.136a1.4 1.4 0 0 1-1.26-.805l-3.911-8.088a1.492 1.492 0 0 1-.077-1.111 1.433 1.433 0 0 1 .706-.842 1.351 1.351 0 0 1 .628-.154 1.4 1.4 0 0 1 1.26.805l3.911 8.088a1.492 1.492 0 0 1 .077 1.111 1.433 1.433 0 0 1-.706.842 1.348 1.348 0 0 1-.628.154" class="cls-1" transform="translate(-60.394)"/>
    </g>
</svg>
