<svg xmlns="http://www.w3.org/2000/svg" width="83" height="60.876">
    <defs>
        <style>
            .shop-2-1,.shop-2-2,.shop-2-4{fill:#e8dcfd;stroke:#7851e7;stroke-width:2px}.shop-2-2,.shop-2-4{fill:none}.shop-2-2{stroke-linecap:round;stroke-miterlimit:10}.shop-2-4{stroke-linejoin:round}
        </style>
    </defs>
    <g id="icon_shop2" transform="translate(1 1)">
        <path id="패스_2339" data-name="패스 2339" class="shop-2-1" d="M416.435 73.467a6.37 6.37 0 0 0 0 9.05 6.475 6.475 0 0 0 9.109 0 6.372 6.372 0 0 0 0-9.05 6.475 6.475 0 0 0-9.109 0zm-1.781 14.888c-.576.917-2.585 1.951-3.648 2.367l-2.832-2.813c.419-1.059 1.459-3.05 2.382-3.624l.034-.022-1.418-3.4-.039.008c-1.063.242-3.218-.436-4.264-.888V76c1.046-.452 3.2-1.129 4.264-.887l.039.011 1.418-3.4-.034-.022c-.922-.574-1.962-2.565-2.382-3.621l2.832-2.816c1.063.416 3.072 1.45 3.648 2.367l.022.035 3.423-1.409-.009-.04c-.244-1.053.439-3.194.895-4.236h4.008c.455 1.042 1.136 3.183.894 4.236l-.011.04 3.425 1.409.02-.035c.58-.917 2.585-1.951 3.648-2.367l2.834 2.816c-.418 1.056-1.459 3.047-2.382 3.621l-.037.022 1.418 3.4.042-.011c1.061-.243 3.215.435 4.264.887v3.983c-1.049.452-3.2 1.129-4.264.888l-.042-.008-1.418 3.4.037.022c.922.574 1.963 2.565 2.382 3.624l-2.834 2.813c-1.063-.416-3.068-1.45-3.648-2.367l-.02-.035-3.425 1.409.011.041c.242 1.056-.439 3.194-.894 4.236h-4.008c-.456-1.042-1.139-3.181-.895-4.236l.009-.041-3.423-1.409z" transform="translate(-382.172 -41.031)"/>
        <path id="패스_2340" data-name="패스 2340" class="shop-2-1" d="M459.292 41.608v10.551h-81V41.608a4.649 4.649 0 0 1 4.719-4.576h71.564a4.647 4.647 0 0 1 4.717 4.576zm-59.262 3.7a.409.409 0 1 0-.422-.408.417.417 0 0 0 .421.407zm-12.614 0a.409.409 0 1 0-.422-.408.417.417 0 0 0 .421.407zm6.306 0a.409.409 0 1 0-.422-.408.415.415 0 0 0 .421.407z" transform="translate(-378.292 -37.032)"/>
        <path id="패스_2341" data-name="패스 2341" class="shop-2-2" d="M459.292 52.159v39.176a4.645 4.645 0 0 1-4.717 4.573h-71.564a4.648 4.648 0 0 1-4.719-4.573V41.608a4.649 4.649 0 0 1 4.719-4.576h71.564a4.647 4.647 0 0 1 4.717 4.576z" transform="translate(-378.292 -37.032)"/>
        <path id="패스_2347" data-name="패스 2347" d="M0 0h81" transform="translate(0 15.128)" style="stroke-linecap:round;fill:none;stroke:#7851e7;stroke-width:2px"/>
        <path id="패스_2342" data-name="패스 2342" class="shop-2-2" d="M389.325 46.322a.422.422 0 1 1-.422-.409.417.417 0 0 1 .422.409z" transform="translate(-379.779 -38.456)"/>
        <path id="패스_2343" data-name="패스 2343" class="shop-2-2" d="M396.709 46.322a.422.422 0 1 1-.422-.409.415.415 0 0 1 .422.409z" transform="translate(-380.857 -38.456)"/>
        <path id="패스_2344" data-name="패스 2344" class="shop-2-2" d="M404.1 46.322a.422.422 0 1 1-.422-.409.417.417 0 0 1 .422.409z" transform="translate(-381.937 -38.456)"/>
        <path id="패스_2345" data-name="패스 2345" class="shop-2-4" d="m431.385 84.263.037.022c.922.574 1.963 2.565 2.382 3.624l-2.834 2.813c-1.063-.416-3.068-1.45-3.648-2.367l-.02-.035-3.425 1.409.011.041c.242 1.056-.439 3.194-.894 4.236h-4.008c-.456-1.042-1.139-3.181-.895-4.236l.009-.041-3.423-1.409-.022.035c-.576.917-2.585 1.951-3.648 2.367l-2.832-2.813c.419-1.059 1.459-3.05 2.382-3.624l.034-.022-1.418-3.4-.039.008c-1.063.242-3.218-.436-4.264-.888V76c1.046-.452 3.2-1.129 4.264-.887l.039.011 1.418-3.4-.034-.022c-.922-.574-1.962-2.565-2.382-3.621l2.832-2.816c1.063.416 3.072 1.45 3.648 2.367l.022.035 3.423-1.409-.009-.04c-.244-1.053.439-3.194.895-4.236h4.008c.455 1.042 1.136 3.183.894 4.236l-.011.04 3.425 1.409.02-.035c.58-.917 2.585-1.951 3.648-2.367l2.834 2.816c-.418 1.056-1.459 3.047-2.382 3.621l-.037.022 1.418 3.4.042-.011c1.061-.243 3.215.435 4.264.887v3.983c-1.049.452-3.2 1.129-4.264.888l-.042-.008z" transform="translate(-382.172 -41.031)"/>
        <path id="패스_2346" data-name="패스 2346" class="shop-2-4" d="M427.2 75.3a6.475 6.475 0 0 0-9.109 0 6.37 6.37 0 0 0 0 9.05 6.475 6.475 0 0 0 9.109 0 6.372 6.372 0 0 0 0-9.05z" transform="translate(-383.827 -42.866)"/>
    </g>
</svg>
