<?xml version="1.0" encoding="UTF-8"?><svg id="_레이어_2" width="144" height="35" xmlns="http://www.w3.org/2000/svg" xmlns:xlink="http://www.w3.org/1999/xlink" viewBox="0 0 749.07 200"><defs><style>.cls-1{fill:#f99e32;}.cls-2{fill:#8573e7;}.cls-3{fill:#5c626d;}.cls-4{fill:url(#_no_name_605);}.cls-5{fill:url(#_no_name_299);}</style><linearGradient id="_no_name_605" x1="36.58" y1="0" x2="36.58" y2="162.09" gradientUnits="userSpaceOnUse"><stop offset="0" stop-color="#8573e7"/><stop offset="1" stop-color="#5e4edd"/></linearGradient><linearGradient id="_no_name_299" x1="182.9" y1="37.91" x2="182.9" y2="200" gradientUnits="userSpaceOnUse"><stop offset="0" stop-color="#fcc332"/><stop offset="1" stop-color="#f99e32"/></linearGradient></defs><g id="_레이어_1-2"><path class="cls-3" d="m322.46,157.15c-8.07,0-15.19-4.85-18.16-12.35l-33.98-86.02c-1.43-3.61-.99-7.52,1.19-10.73,2.18-3.21,5.66-5.05,9.55-5.05h2.15c4.81,0,9.16,3.03,10.83,7.54l29.57,79.93,29.43-79.91c1.66-4.52,6.02-7.55,10.83-7.55,3.88,0,7.36,1.84,9.54,5.05,2.18,3.21,2.62,7.12,1.19,10.73l-33.99,86.02c-2.96,7.5-10.09,12.35-18.16,12.35Z"/><path class="cls-3" d="m447.19,160c-35.76,0-61.71-25.23-61.71-60s25.95-60,61.71-60,61.71,25.23,61.71,60-25.95,60-61.71,60Zm0-98.66c-21.9,0-37.8,16.26-37.8,38.66s15.9,38.65,37.8,38.65,37.8-16.26,37.8-38.65-15.9-38.66-37.8-38.66Z"/><path class="cls-3" d="m548.36,157.15c-10.67,0-19.35-8.68-19.35-19.35V62.34c0-10.67,8.68-19.35,19.35-19.35h24.68c37.23,0,61.28,22.43,61.28,57.15s-24.06,57.01-61.28,57.01h-24.68Zm7.62-93.24c-1.68,0-3.05,1.37-3.05,3.05v66.21c0,1.68,1.37,3.05,3.05,3.05h17.49c23.13,0,36.94-13.49,36.94-36.09s-13.81-36.23-36.94-36.23h-17.49Z"/><path class="cls-3" d="m735.35,157.15c-4.81,0-9.16-3.03-10.83-7.54l-29.57-79.93-29.43,79.91c-1.66,4.52-6.02,7.55-10.83,7.55-3.88,0-7.36-1.84-9.54-5.05-2.18-3.21-2.62-7.12-1.19-10.73l33.98-86.02c2.96-7.5,10.09-12.35,18.16-12.35s15.19,4.85,18.16,12.35l33.99,86.02c1.43,3.61.99,7.52-1.19,10.73-2.18,3.21-5.66,5.05-9.54,5.05h-2.15Z"/><path class="cls-4" d="m73.16,162.09l-57.12-20.79c-9.63-3.51-16.05-12.66-16.05-22.92V18.31C0,5.61,12.62-3.22,24.55,1.12l48.62,17.69v143.28Z"/><path class="cls-2" d="m73.16,162.09l57.12-20.79c9.63-3.51,16.05-12.66,16.05-22.92V18.31c0-12.7-12.62-21.53-24.55-17.19l-48.62,17.69v143.28Z"/><path class="cls-1" d="m146.32,37.91l-57.12,20.79c-9.63,3.51-16.05,12.66-16.05,22.92v100.08c0,12.7,12.62,21.53,24.55,17.19l48.62-17.69V37.91Z"/><path class="cls-5" d="m146.32,37.91l57.12,20.79c9.63,3.51,16.05,12.66,16.05,22.92v100.08c0,12.7-12.62,21.53-24.55,17.19l-48.62-17.69V37.91Z"/></g></svg>