<svg xmlns="http://www.w3.org/2000/svg" width="74" height="20">
    <defs>
        <style>
            .logo-plani-1{fill:#545764}
        </style>
    </defs>
    <g id="logo_plani" transform="translate(-282.038 -237.15)">
        <g id="그룹_2419" data-name="그룹 2419" transform="translate(282.038 237.205)">
            <path id="패스_2385" data-name="패스 2385" class="logo-plani-1" d="M437.144 250.929a7.8 7.8 0 0 0-4.62-1.15c-4.249 0-6.228 1.564-6.228 4.922v8.36h3.975v-8.268a2.256 2.256 0 1 1 4.507 0v8.268h4.014V254.7a4.329 4.329 0 0 0-1.648-3.771z" transform="translate(-388.066 -246.516)"/>
            <path id="패스_2386" data-name="패스 2386" class="logo-plani-1" d="M373.975 249.779a15.833 15.833 0 0 0-4.867.626v2.178a14.414 14.414 0 0 1 3.723-.523 5.062 5.062 0 0 1 1.6.249l.037.014a2.215 2.215 0 0 1 1.647 1.975v4.849a2.153 2.153 0 0 1-2.372 2.068 1.991 1.991 0 0 1-2.115-2.16 2.079 2.079 0 0 1 2.293-2.275c.123 0 .242 0 .36.01v-1.357a12.9 12.9 0 0 0-1.177-.055 6 6 0 0 0-4.352 1.385 3.2 3.2 0 0 0-.841 2.292c0 3.538 3.322 4.28 6.11 4.28 2.62 0 4.124-.369 5.029-1.234.924-.884 1.336-2.452 1.336-5.086-.005-4.598-2.34-7.236-6.411-7.236z" transform="translate(-345.149 -246.516)"/>
            <path id="패스_2387" data-name="패스 2387" class="logo-plani-1" d="M288.508 249.693h-.045c-2.561.01-4.286.587-5.272 1.765-.8.954-1.154 2.317-1.154 4.419v10.5l3.955-2.778v-9.243a2.2 2.2 0 0 1 .925-1.745 2.1 2.1 0 0 1 .2-.121l.279-.12a2.391 2.391 0 0 1 .786-.127 2.249 2.249 0 0 1 2.236 1.811 10.09 10.09 0 0 1 .235 2.361 8.84 8.84 0 0 1-.336 2.55l-.016.067a2.479 2.479 0 0 1-2.354 1.81c-.054 0-.106 0-.157-.007v1.916a4.94 4.94 0 0 0 2.129.461c3.157 0 4.758-2.149 4.758-6.389 0-2.384-.425-4.088-1.377-5.178a6.131 6.131 0 0 0-4.792-1.952z" transform="translate(-282.038 -246.452)"/>
            <path id="패스_2388" data-name="패스 2388" class="logo-plani-1" d="M341.057 240.25v13.665h4.116v-16.556z" transform="translate(-325.416 -237.359)"/>
        </g>
        <path id="패스_2389" data-name="패스 2389" d="M495.237 237.15a10 10 0 1 0 10.086 10 10.043 10.043 0 0 0-10.086-10zm4.606 3.527-2.481 1.742v9.461l2.481 1.742h-9.212l2.48-1.742v-9.46l-2.48-1.742h9.212z" transform="translate(-149.285)" style="fill:#0097d5"/>
    </g>
</svg>
